<svg width="57" height="58" viewBox="0 0 57 58" fill="none" xmlns="http://www.w3.org/2000/svg">
<path fill-rule="evenodd" clip-rule="evenodd" d="M28.5 56.5C43.6878 56.5 56 44.1878 56 29C56 13.8122 43.6878 1.5 28.5 1.5C13.3122 1.5 1 13.8122 1 29C1 44.1878 13.3122 56.5 28.5 56.5Z" stroke="white" stroke-width="2"/>
<path d="M22.7 19C20.3804 19 18.5 20.8804 18.5 23.2V29.5C18.5 31.8196 20.3804 33.7 22.7 33.7H29.1792C29.6117 34.9235 30.7785 35.8 32.15 35.8C33.8897 35.8 35.3 34.3897 35.3 32.65C35.3 30.9103 33.8897 29.5 32.15 29.5C30.7785 29.5 29.6117 30.3765 29.1792 31.6H22.7C21.5402 31.6 20.6 30.6598 20.6 29.5V23.2C20.6 22.0402 21.5402 21.1 22.7 21.1H29C30.1598 21.1 31.1 22.0402 31.1 23.2H33.2C33.2 20.8804 31.3196 19 29 19H22.7ZM35.3 40C37.6196 40 39.5 38.1196 39.5 35.8V29.5C39.5 27.1804 37.6196 25.3 35.3 25.3H28.8208C28.3883 24.0765 27.2215 23.2 25.85 23.2C24.1103 23.2 22.7 24.6103 22.7 26.35C22.7 28.0897 24.1103 29.5 25.85 29.5C27.2215 29.5 28.3883 28.6235 28.8208 27.4H35.3C36.4598 27.4 37.4 28.3402 37.4 29.5V35.8C37.4 36.9598 36.4598 37.9 35.3 37.9H29C27.8402 37.9 26.9 36.9598 26.9 35.8H24.8C24.8 38.1196 26.6804 40 29 40H35.3Z" fill="white"/>
</svg>
