<svg width="128" height="153" viewBox="0 0 128 153" fill="none" xmlns="http://www.w3.org/2000/svg">
<g filter="url(#filter0_d)">
<path fill-rule="evenodd" clip-rule="evenodd" d="M76.5 121C102.181 121 123 100.181 123 74.5C123 48.8188 102.181 28 76.5 28C50.8188 28 30 48.8188 30 74.5C30 100.181 50.8188 121 76.5 121Z" fill="#F5F9FC"/>
</g>
<path fill-rule="evenodd" clip-rule="evenodd" d="M66.141 78.4622L63.7463 74.4632L61.7239 71.0956L53.1301 76.2673L54.4426 78.4622H66.141ZM86.025 78.4622H97.7234L82.3889 52.8873L73.8036 58.0591L86.025 78.4622ZM81.9368 82.47C81.1117 81.9372 80.1447 81.6259 79.0981 81.6259H79.0717C76.1807 81.6436 73.8303 84.0074 73.8303 86.9044C73.8303 89.8016 76.1807 92.1651 79.0717 92.1831H79.0981C80.1447 92.1831 81.1117 91.8722 81.9368 91.339V91.8898H84.3577V78.4625H81.9368V82.47ZM81.9368 87.4555C81.6797 88.7886 80.4998 89.8102 79.0981 89.8102H79.0717C77.4841 89.7925 76.1983 88.495 76.1983 86.9044C76.1983 85.314 77.4841 84.0165 79.0717 84.0074H79.0981C80.4998 84.0074 81.6794 85.0207 81.9368 86.3535V87.4555ZM93.3066 82.47C92.4626 81.9182 91.4764 81.6248 90.4686 81.6259H90.4415C87.5505 81.6436 85.2005 84.0074 85.2005 86.9044C85.2005 89.8016 87.5505 92.1651 90.4415 92.1831H90.4686C91.5152 92.1831 92.4906 91.8722 93.3066 91.339V91.8898H95.7282V81.8924H93.3066V82.47ZM93.3066 87.4555C93.0495 88.7886 91.8697 89.8102 90.4686 89.8102H90.4415C88.8545 89.7925 87.5685 88.495 87.5685 86.9044C87.5685 85.314 88.8545 84.0165 90.4415 84.0074H90.4686C91.8697 84.0074 93.0492 85.0207 93.3066 86.3535V87.4555ZM104.34 86.2468C104.251 86.202 104.127 86.1578 103.985 86.1044C103.444 85.9179 102.566 85.6868 101.342 85.4204C100.268 85.1801 99.7275 84.8695 99.7275 84.4784C99.7275 84.2028 99.8249 83.9806 100.011 83.8208C100.26 83.6074 100.703 83.5007 101.342 83.5007C101.989 83.5007 102.459 83.6431 102.734 83.9184C102.903 84.0873 103.027 84.389 103.107 84.8158H105.679C105.679 83.5541 105.164 82.6478 104.153 82.0969C104.1 82.0621 104.043 82.0324 103.985 82.0082C103.284 81.6793 102.353 81.5104 101.191 81.5104C99.7805 81.5104 98.7165 81.8838 98.0073 82.6389C97.4399 83.2431 97.1648 83.9806 97.1648 84.8515C97.1648 85.9362 97.6967 86.7178 98.7789 87.2244C99.1869 87.4198 100.18 87.6954 101.759 88.0332C102.814 88.2643 103.346 88.5932 103.346 89.0109C103.346 89.2599 103.24 89.473 103.009 89.6684C102.716 89.9172 102.273 90.0419 101.679 90.0419C100.889 90.0419 100.331 89.9086 100.003 89.6511C99.6743 89.4023 99.5057 89.038 99.5057 88.5759H96.8098C96.8098 89.8023 97.3243 90.7174 98.3617 91.3213C99.1869 91.7923 100.269 92.0325 101.608 92.0325C102.504 92.0325 103.302 91.8813 103.985 91.5884C104.127 91.5262 104.251 91.4637 104.384 91.3926C105.44 90.8064 105.972 89.8733 105.972 88.5939C105.972 87.5442 105.43 86.762 104.34 86.2468ZM55.1345 82.47C54.2867 81.9193 53.298 81.6261 52.2876 81.6259H52.2608C49.3787 81.6436 47.0283 84.0074 47.0283 86.9044C47.0283 89.8016 49.3787 92.1651 52.2608 92.1831H52.2876C53.3342 92.1831 54.3096 91.8722 55.1345 91.339V91.8898H57.5557V81.8924H55.1345V82.47ZM55.1345 87.4555C54.8774 88.7886 53.6975 89.8102 52.2876 89.8102H52.2608C50.6824 89.7925 49.3963 88.495 49.3963 86.9044C49.3963 85.314 50.6824 84.0165 52.2608 84.0074H52.2876C53.6978 84.0074 54.8774 85.0207 55.1345 86.3535V87.4555ZM70.2472 80.8351H72.8814V78.5156H70.2472V80.8351ZM70.2472 91.8895H72.8814V81.6259H70.2472V91.8895ZM66.6199 82.47C65.7721 81.9192 64.7832 81.6261 63.7727 81.6259H63.7463C60.855 81.6436 58.5046 84.0074 58.5046 86.9044C58.5046 89.8016 60.8547 92.1651 63.7463 92.1831H63.7727C64.7832 92.1831 65.7721 91.8899 66.6199 91.339V91.8898H69.0411V78.4625H66.6199V82.47ZM66.6199 87.4555C66.3628 88.7886 65.1829 89.8102 63.7727 89.8102H63.7463C62.1587 89.7925 60.8726 88.495 60.8726 86.9044C60.8726 85.314 62.1587 84.0165 63.7463 84.0074H63.7727C65.1829 84.0074 66.3625 85.0207 66.6199 86.3535V87.4555ZM81.9273 78.4622L79.0717 73.6816L72.0566 61.987L63.7463 66.999L63.4624 67.1676L63.7463 67.6386L70.238 78.4622H81.9273Z" fill="#0065F2"/>
<defs>
<filter id="filter0_d" x="0" y="0" width="153" height="153" filterUnits="userSpaceOnUse" color-interpolation-filters="sRGB">
<feFlood flood-opacity="0" result="BackgroundImageFix"/>
<feColorMatrix in="SourceAlpha" type="matrix" values="0 0 0 0 0 0 0 0 0 0 0 0 0 0 0 0 0 0 127 0" result="hardAlpha"/>
<feOffset dy="2"/>
<feGaussianBlur stdDeviation="15"/>
<feColorMatrix type="matrix" values="0 0 0 0 0.189 0 0 0 0 0.276027 0 0 0 0 0.35 0 0 0 0.15 0"/>
<feBlend mode="normal" in2="BackgroundImageFix" result="effect1_dropShadow"/>
<feBlend mode="normal" in="SourceGraphic" in2="effect1_dropShadow" result="shape"/>
</filter>
</defs>
</svg>
