<svg width="193" height="193" viewBox="0 0 193 193" fill="none" xmlns="http://www.w3.org/2000/svg">
<g filter="url(#filter0_d)">
<path fill-rule="evenodd" clip-rule="evenodd" d="M96.5 161C133.227 161 163 131.227 163 94.5C163 57.7731 133.227 28 96.5 28C59.7731 28 30 57.7731 30 94.5C30 131.227 59.7731 161 96.5 161Z" fill="#F5F9FC"/>
</g>
<path fill-rule="evenodd" clip-rule="evenodd" d="M79.5281 100.233L78.8536 101.414L66.1683 100.709L79.5281 100.233ZM77.93 103.041L77.271 104.225L64.5385 103.517L77.93 103.041ZM76.3319 105.872L75.6742 107.048L62.9572 106.341L76.3319 105.872ZM74.7668 108.688L74.0773 109.871L61.3753 109.165L74.7668 108.688ZM91.137 86.063L91.1855 87.6201L74.0854 86.6698L91.137 86.063ZM91.029 83.2767L91.0774 84.6953L75.7108 83.814L91.029 83.2767ZM90.9197 80.5893L90.9855 81.7998L77.2716 81.0383L90.9197 80.5893ZM90.8277 77.8303L90.8749 78.9396L78.8648 78.2303L90.8277 77.8303ZM90.7501 75.6L90.7656 76.1528L80.3455 75.6H90.7501ZM73.1531 111.504L72.8805 111.988H59.7939L73.1531 111.504ZM118.427 75.69C125.91 75.7062 127.515 80.17 126.553 84.5382C125.493 89.3461 120.131 92.8236 117.047 93.5305C122.571 95.3285 122.571 98.9253 121.414 102.907C120.258 106.89 114.093 111.899 107.221 111.899H81.3051L81.2728 111.127L89.221 110.84C89.3818 110.84 89.3818 110.647 89.2688 110.631L81.2405 110.185L81.1765 108.388L90.7942 108.045C90.9867 108.045 90.9544 107.836 90.8426 107.821L81.128 107.281L81.079 105.648L92.383 105.251C92.5761 105.251 92.5277 105.026 92.4159 105.01L81.015 104.377L80.951 102.889L94.004 102.425C94.181 102.425 94.1326 102.232 94.0369 102.216L80.9026 101.486L80.8541 100.156L95.5947 99.6303C95.7866 99.6303 95.7065 99.4216 95.6263 99.4054L67.8806 97.8645L97.1691 96.8223C97.4089 96.8061 97.2977 96.5974 97.1847 96.5813L69.4384 95.0397L98.7734 93.9801C98.9666 93.9801 98.9349 93.7714 98.8064 93.7714L71.06 92.2305L100.347 91.1864C100.54 91.1864 100.555 90.9616 100.38 90.9616L72.6333 89.42L101.873 88.4406C102.066 88.4406 102.048 88.2635 101.904 88.2474L92.3674 87.7176L93.3475 86.0232L103.495 85.6618C103.688 85.6618 103.704 85.4692 103.495 85.4531L93.9736 84.9071L94.9369 83.1917L105.084 82.8358C105.293 82.8358 105.293 82.6588 105.084 82.6426L95.5313 82.1122L96.4772 80.4719L106.642 80.1377C106.754 80.1377 106.786 79.9613 106.657 79.9452L97.0884 79.38L98.0673 77.667L108.215 77.3279C108.376 77.3279 108.376 77.1676 108.263 77.1676L98.6287 76.6565L99.1747 75.69H118.427ZM105.392 103.577C110.979 103.577 113.934 95.613 107.833 95.613H101.924L97.4281 103.577H105.392ZM115.7 86.4916C115.955 85.5288 115.827 83.3451 111.974 83.2165H108.955L105.166 89.8958H111.076C113.515 89.8958 115.442 87.4549 115.7 86.4916Z" fill="#0065F2"/>
<defs>
<filter id="filter0_d" x="0" y="0" width="193" height="193" filterUnits="userSpaceOnUse" color-interpolation-filters="sRGB">
<feFlood flood-opacity="0" result="BackgroundImageFix"/>
<feColorMatrix in="SourceAlpha" type="matrix" values="0 0 0 0 0 0 0 0 0 0 0 0 0 0 0 0 0 0 127 0" result="hardAlpha"/>
<feOffset dy="2"/>
<feGaussianBlur stdDeviation="15"/>
<feColorMatrix type="matrix" values="0 0 0 0 0.189 0 0 0 0 0.276027 0 0 0 0 0.35 0 0 0 0.15 0"/>
<feBlend mode="normal" in2="BackgroundImageFix" result="effect1_dropShadow"/>
<feBlend mode="normal" in="SourceGraphic" in2="effect1_dropShadow" result="shape"/>
</filter>
</defs>
</svg>
