<svg width="191" height="191" viewBox="0 0 191 191" fill="none" xmlns="http://www.w3.org/2000/svg">
<g filter="url(#filter0_d)">
<path fill-rule="evenodd" clip-rule="evenodd" d="M95.5 159C131.675 159 161 129.675 161 93.5C161 57.3253 131.675 28 95.5 28C59.3253 28 30 57.3253 30 93.5C30 129.675 59.3253 159 95.5 159Z" fill="#F5F9FC"/>
</g>
<path d="M72.8915 99.4291H79.6724L89.664 72.7583H83.3666L78.8796 84.7199L79.653 72.7583H72.9529L62.9618 99.4291H69.2587L73.6622 87.6294L72.8915 99.4291Z" fill="#0065F2"/>
<path d="M90.481 72.7583L80.4904 99.4291H86.7873L96.7779 72.7583H90.481Z" fill="#0065F2"/>
<path fill-rule="evenodd" clip-rule="evenodd" d="M62.2357 90.2361C53.4364 100.581 45.136 114.347 52.4677 120.685C59.5097 126.774 68.4565 123.19 74.507 120.766C80.5618 118.341 147.486 89.2458 147.486 89.2458C148.131 88.9225 148.011 88.5183 147.203 88.7201C147.066 88.7545 134.099 92.271 119.143 96.328L119.885 94.2568H112.539L114.953 87.7913H121.007L122.87 82.8208H116.816L118.891 77.2037H125.268L126.96 72.7583H107.747L101.149 80.7597L104.195 72.7583H97.8175L87.9067 99.4291H94.2036L98.4349 88.2759L98.7247 99.4291L107.783 99.4094C90.6184 104.066 74.3458 108.481 74.3458 108.481C65.1418 111.068 54.6472 105.43 62.2357 90.2361ZM104.972 97.6509L104.568 83.7501L114.089 73.285L104.972 97.6509Z" fill="#0065F2"/>
<defs>
<filter id="filter0_d" x="0" y="0" width="191" height="191" filterUnits="userSpaceOnUse" color-interpolation-filters="sRGB">
<feFlood flood-opacity="0" result="BackgroundImageFix"/>
<feColorMatrix in="SourceAlpha" type="matrix" values="0 0 0 0 0 0 0 0 0 0 0 0 0 0 0 0 0 0 127 0" result="hardAlpha"/>
<feOffset dy="2"/>
<feGaussianBlur stdDeviation="15"/>
<feColorMatrix type="matrix" values="0 0 0 0 0.189 0 0 0 0 0.276027 0 0 0 0 0.35 0 0 0 0.15 0"/>
<feBlend mode="normal" in2="BackgroundImageFix" result="effect1_dropShadow"/>
<feBlend mode="normal" in="SourceGraphic" in2="effect1_dropShadow" result="shape"/>
</filter>
</defs>
</svg>
