<svg width="197" height="197" viewBox="0 0 197 197" fill="none" xmlns="http://www.w3.org/2000/svg">
<g filter="url(#filter0_d)">
<path fill-rule="evenodd" clip-rule="evenodd" d="M98.5 165C136.332 165 167 134.332 167 96.5C167 58.6685 136.332 28 98.5 28C60.6685 28 30 58.6685 30 96.5C30 134.332 60.6685 165 98.5 165Z" fill="#F5F9FC"/>
</g>
<path fill-rule="evenodd" clip-rule="evenodd" d="M105.572 65.834C105.879 65.7843 106.392 66.9229 106.697 66.8223C107.021 66.7104 107.473 65.7527 107.914 65.8097C108.103 65.8346 108.853 67.3438 108.853 67.3438C114.89 67.6433 122.343 75.0025 123.303 75.7472C123.765 76.1066 125.72 78.1408 129.293 79.7167C130.762 80.3654 132.238 80.6439 133.606 80.5417C135.432 80.4094 137.474 78.7968 138.73 76.6005C140.305 73.8532 140.973 69.0672 145.519 66.3544C146.156 65.9747 147.597 65.126 148.431 66.1957C149.102 67.0619 148.547 68.4915 147.849 69.1757C147.407 69.608 146.607 70.0453 145.084 70.7669C144.569 71.0138 143.727 71.6473 143.399 71.9055C141.767 73.1548 140.585 75.9936 139.27 79.1019C139.27 79.1019 138.709 80.6293 136.239 82.2718C135.821 82.5431 136.196 82.7747 136.651 83.3596C137.233 84.1342 138.4 87.2889 138.249 92.0896C138.225 92.9416 138.567 93.3118 138.953 94.0096C139.621 95.2131 140.943 94.9442 140.909 96.5235C140.864 98.6435 142.422 99.095 141.922 100.074C141.557 100.787 141.684 101.479 141.685 102.175C141.685 102.526 141.874 103.039 141.151 103.002C138.189 102.822 138.386 98.8261 138.442 97.4507C138.489 97.2688 138.353 96.9433 138.33 96.9275C138.183 96.8207 136.339 95.3776 136.216 95.2549C133.975 92.9637 132.498 90.903 131.673 88.7863C131.126 87.3748 130.563 85.9831 129.601 85.0886C128.523 84.1003 127.204 83.5443 126.045 83.537C117.804 83.4946 116.108 79.8585 113.867 78.0464C113.799 77.9967 113.594 77.8803 113.476 77.8701C113.35 77.8797 113.253 78.0289 113.171 78.0984C112.306 79.011 111.433 79.3087 110.261 79.3087C107.477 79.3087 104.481 76.8542 103.954 77.4011C103.551 77.8277 103.901 78.7058 103.16 78.8527C102.089 79.0686 100.981 78.0052 101.069 77.1045C101.231 75.4913 102.871 75.0189 104.31 74.8539C105.502 74.7273 106.474 75.0551 106.697 75.0805C107.36 75.1743 107.477 74.3663 107.368 73.8442C107.244 73.2791 106.72 73.161 106.172 72.9972C105.506 72.7966 104.764 73.3537 104.267 73.1836C103.682 72.9729 103.636 72.6734 103.155 72.2406C102.538 71.7015 101.827 71.5563 101.829 70.7963C101.829 70.0922 102.679 70.0352 102.922 69.3899C103.045 69.0667 103.01 68.7299 103.12 68.5338C103.408 68.0072 103.946 68.0321 104.381 67.6066C104.971 67.0144 105.266 65.8804 105.572 65.834ZM78.9907 109.75C79.5615 109.735 80.0452 109.266 80.0447 108.687L80.0497 89.7435H86.2521V110.624C86.2521 111.648 85.4375 112.483 84.4195 112.483H73.5698C72.5574 112.483 71.7333 111.648 71.7333 110.624V89.7435H77.9407L77.9396 108.687C77.9396 109.266 78.4222 109.735 78.9907 109.75ZM90.3792 89.7435H109.17C109.707 89.7444 110.221 89.9597 110.6 90.3421C110.978 90.7244 111.19 91.2425 111.189 91.7822V112.483H104.975V93.4948C104.97 92.9128 104.496 92.4517 103.923 92.4517C103.343 92.4517 102.879 92.9015 102.87 93.4784V112.483H96.6838V93.479C96.6703 92.9021 96.2051 92.4523 95.6253 92.4523C95.3485 92.4504 95.0823 92.5592 94.8853 92.7549C94.6883 92.9505 94.5768 93.217 94.5753 93.4954V112.483H88.3617V91.7822C88.3601 91.2426 88.5718 90.7246 88.9502 90.3422C89.3286 89.9598 89.8427 89.7444 90.3792 89.7435ZM67.5927 106.769H61.3218V112.483H55.1172V89.7435H67.6321C68.7523 89.7435 69.627 90.6594 69.627 91.7912V104.718C69.6287 105.262 69.415 105.784 69.0333 106.169C68.6516 106.553 68.1332 106.769 67.5927 106.769ZM63.4269 93.5344C63.4308 93.2507 63.3223 92.977 63.1253 92.7739C62.9283 92.5708 62.659 92.4549 62.3769 92.4517H61.3218V103.953H62.3769C62.9235 103.953 63.432 103.516 63.4269 102.885V93.5344ZM121.606 112.483V106.773H119.495V112.483H113.295V91.7822C113.295 90.6521 114.199 89.7435 115.313 89.7435H125.788C126.325 89.7439 126.84 89.9591 127.219 90.3415C127.597 90.724 127.81 91.2423 127.808 91.7822V112.483H121.606ZM121.606 103.958V93.4869C121.59 92.9083 121.126 92.4631 120.547 92.4631C119.973 92.4621 119.504 92.9255 119.495 93.5033V103.958H121.606Z" fill="#0065F2"/>
<defs>
<filter id="filter0_d" x="0" y="0" width="197" height="197" filterUnits="userSpaceOnUse" color-interpolation-filters="sRGB">
<feFlood flood-opacity="0" result="BackgroundImageFix"/>
<feColorMatrix in="SourceAlpha" type="matrix" values="0 0 0 0 0 0 0 0 0 0 0 0 0 0 0 0 0 0 127 0" result="hardAlpha"/>
<feOffset dy="2"/>
<feGaussianBlur stdDeviation="15"/>
<feColorMatrix type="matrix" values="0 0 0 0 0.189 0 0 0 0 0.276027 0 0 0 0 0.35 0 0 0 0.15 0"/>
<feBlend mode="normal" in2="BackgroundImageFix" result="effect1_dropShadow"/>
<feBlend mode="normal" in="SourceGraphic" in2="effect1_dropShadow" result="shape"/>
</filter>
</defs>
</svg>
