<svg width="98" height="169" viewBox="0 0 98 169" fill="none" xmlns="http://www.w3.org/2000/svg">
<g filter="url(#filter0_d)">
<path fill-rule="evenodd" clip-rule="evenodd" d="M13.5 137C43.5995 137 68 112.6 68 82.5C68 52.4005 43.5995 28 13.5 28C-16.5995 28 -41 52.4005 -41 82.5C-41 112.6 -16.5995 137 13.5 137Z" fill="#F5F9FC"/>
</g>
<path fill-rule="evenodd" clip-rule="evenodd" d="M-13.0151 59.3619C-12.5934 59.2934 -11.8905 60.8607 -11.4712 60.7223C-11.0273 60.5683 -10.4068 59.2498 -9.80173 59.3284C-9.54276 59.3626 -8.51456 61.4402 -8.51456 61.4402C-0.231926 61.8525 9.99303 71.9829 11.3103 73.0081C11.9438 73.5028 14.6261 76.303 19.5282 78.4723C21.5437 79.3653 23.5685 79.7488 25.4453 79.608C27.9503 79.426 30.752 77.206 32.4747 74.1826C34.6359 70.4008 35.5531 63.8126 41.7894 60.0782C42.6626 59.5555 44.6404 58.3872 45.7842 59.8597C46.7045 61.0521 45.943 63.02 44.9865 63.9619C44.3799 64.557 43.2823 65.159 41.1928 66.1523C40.4852 66.4922 39.3306 67.3642 38.8805 67.7196C36.6414 69.4394 35.0197 73.3472 33.2162 77.6261C33.2162 77.6261 32.4462 79.7285 29.0571 81.9897C28.4844 82.363 28.9993 82.6819 29.6236 83.487C30.4214 84.5534 32.023 88.896 31.8149 95.5045C31.7818 96.6774 32.2519 97.1869 32.7815 98.1475C33.6971 99.8043 35.5107 99.434 35.4645 101.608C35.4028 104.526 37.5402 105.148 36.8542 106.495C36.3532 107.477 36.5274 108.43 36.5289 109.388C36.5289 109.871 36.7879 110.577 35.7967 110.526C31.7324 110.279 32.0037 104.778 32.0801 102.884C32.1448 102.634 31.9583 102.186 31.9267 102.164C31.7247 102.017 29.1943 100.031 29.0255 99.8619C25.9517 96.7078 23.9254 93.871 22.7931 90.9573C22.0424 89.0142 21.2701 87.0985 19.9505 85.8672C18.4722 84.5067 16.6625 83.7413 15.0724 83.7312C3.7668 83.6729 1.43986 78.6676 -1.63549 76.1731C-1.72875 76.1046 -2.00931 75.9444 -2.17194 75.9304C-2.34459 75.9436 -2.47793 76.149 -2.59047 76.2446C-3.77667 77.5008 -4.97444 77.9107 -6.58225 77.9107C-10.4022 77.9107 -14.5119 74.5319 -15.2356 75.2848C-15.7883 75.872 -15.3081 77.0808 -16.3239 77.283C-17.7938 77.5802 -19.3137 76.1163 -19.1935 74.8764C-18.9707 72.6557 -16.7209 72.0055 -14.7462 71.7783C-13.1114 71.6041 -11.778 72.0552 -11.472 72.0902C-10.5617 72.2194 -10.4022 71.1071 -10.5509 70.3884C-10.7213 69.6105 -11.4404 69.448 -12.1919 69.2224C-13.106 68.9463 -14.1234 69.7132 -14.8055 69.4791C-15.6079 69.1889 -15.6711 68.7767 -16.3309 68.1809C-17.1772 67.4388 -18.153 67.2389 -18.1499 66.1927C-18.1499 65.2236 -16.9837 65.145 -16.6515 64.2567C-16.4819 63.8118 -16.5297 63.3482 -16.3794 63.0783C-15.9848 62.3534 -15.2456 62.3876 -14.6498 61.8019C-13.8398 60.9867 -13.4351 59.4256 -13.0151 59.3619Z" fill="#0065F2"/>
<defs>
<filter id="filter0_d" x="-71" y="0" width="169" height="169" filterUnits="userSpaceOnUse" color-interpolation-filters="sRGB">
<feFlood flood-opacity="0" result="BackgroundImageFix"/>
<feColorMatrix in="SourceAlpha" type="matrix" values="0 0 0 0 0 0 0 0 0 0 0 0 0 0 0 0 0 0 127 0" result="hardAlpha"/>
<feOffset dy="2"/>
<feGaussianBlur stdDeviation="15"/>
<feColorMatrix type="matrix" values="0 0 0 0 0.189 0 0 0 0 0.276027 0 0 0 0 0.35 0 0 0 0.15 0"/>
<feBlend mode="normal" in2="BackgroundImageFix" result="effect1_dropShadow"/>
<feBlend mode="normal" in="SourceGraphic" in2="effect1_dropShadow" result="shape"/>
</filter>
</defs>
</svg>
