<svg width="103" height="168" viewBox="0 0 103 168" fill="none" xmlns="http://www.w3.org/2000/svg">
<g filter="url(#filter0_d)">
<path fill-rule="evenodd" clip-rule="evenodd" d="M84 136C113.823 136 138 111.823 138 82C138 52.1766 113.823 28 84 28C54.1766 28 30 52.1766 30 82C30 111.823 54.1766 136 84 136Z" fill="#F5F9FC"/>
</g>
<path fill-rule="evenodd" clip-rule="evenodd" d="M59.547 79.1008C59.547 78.3099 60.0646 77.7826 60.4528 78.1781C65.1106 82.923 82.3185 95.8402 82.1891 107.175C82.0597 107.833 81.5421 108.229 80.8951 108.229C68.0862 107.306 57.606 102.166 59.547 79.1008ZM99.3965 58.9351C95.7739 56.9578 92.0219 56.0356 87.4934 55.7715C86.5877 55.7715 86.1995 56.4306 86.0705 57.2215C85.6823 63.1528 85.8113 66.4477 85.6823 72.2468C85.5525 73.1695 86.1999 74.3558 87.2351 73.0377C92.0214 68.2927 94.7392 65.6568 99.5255 60.9119C100.302 60.2533 100.044 59.1987 99.3965 58.9351ZM68.345 58.9351C72.0971 56.9578 75.8491 56.0356 80.3775 55.7715C81.2833 55.7715 81.6715 56.4306 81.8009 57.2215C82.1891 63.1528 82.0597 66.4477 82.1891 72.2468C82.3185 73.1695 81.6715 74.3558 80.5069 73.0377C75.7202 68.2927 73.0029 65.6568 68.3455 60.9119C67.4393 60.2533 67.8274 59.1987 68.345 58.9351ZM102.373 62.626C93.3153 71.4563 85.2942 77.3872 85.6823 93.2043C85.6823 93.8629 86.1999 94.5225 87.1052 93.7316C94.6093 86.2185 98.8789 82.1326 106.512 74.6199C107.677 73.4336 107.936 72.3791 107.548 70.5336C106.772 67.2386 106.125 65.7887 104.184 63.1528C103.667 62.626 103.149 62.3619 102.373 62.626ZM65.4988 62.626C74.5551 71.4563 82.5773 77.3876 82.1891 93.2043C82.1891 93.8629 81.6715 94.5225 80.7657 93.7316C73.2612 86.218 68.992 82.1326 61.3585 74.6199C60.194 73.4336 59.9352 72.3791 60.3234 70.5336C61.0997 67.2386 61.7467 65.7887 63.6872 63.1528C64.2048 62.626 64.7224 62.3619 65.4988 62.626ZM108.453 79.1008C108.453 78.3099 108.065 77.7826 107.548 78.1781C103.02 82.923 85.6819 95.8402 85.8113 107.175C85.9402 107.833 86.5877 108.229 87.2351 108.229C99.9141 107.306 110.394 102.166 108.453 79.1008Z" fill="#0065F2"/>
<defs>
<filter id="filter0_d" x="0" y="0" width="168" height="168" filterUnits="userSpaceOnUse" color-interpolation-filters="sRGB">
<feFlood flood-opacity="0" result="BackgroundImageFix"/>
<feColorMatrix in="SourceAlpha" type="matrix" values="0 0 0 0 0 0 0 0 0 0 0 0 0 0 0 0 0 0 127 0" result="hardAlpha"/>
<feOffset dy="2"/>
<feGaussianBlur stdDeviation="15"/>
<feColorMatrix type="matrix" values="0 0 0 0 0.189 0 0 0 0 0.276027 0 0 0 0 0.35 0 0 0 0.15 0"/>
<feBlend mode="normal" in2="BackgroundImageFix" result="effect1_dropShadow"/>
<feBlend mode="normal" in="SourceGraphic" in2="effect1_dropShadow" result="shape"/>
</filter>
</defs>
</svg>
